HIERARCHY
ROOT Hips
{
  OFFSET -50.2513 65.4712 -91.7859
  CHANNELS 6 Xposition Yposition Zposition Zrotation Xrotation Yrotation
  JOINT RightUpLeg
  {
    OFFSET -8.9458 -8.66707 0.101652
    CHANNELS 3 Zrotation Xrotation Yrotation
    JOINT RightLeg
    {
      OFFSET 0 -44.4227 1.3727
      CHANNELS 3 Zrotation Xrotation Yrotation
      JOINT RightFoot
      {
        OFFSET 0.253549 -42.0924 -1.46059
        CHANNELS 3 Zrotation Xrotation Yrotation
        JOINT RightToes
        {
          OFFSET 0.04 -4.41509 8.4991
          CHANNELS 3 Zrotation Xrotation Yrotation
          End Site
          {
            OFFSET -0.08 -0.137448 9.77979
          }
        }
      }
    }
  }
  JOINT Spine
  {
    OFFSET 0 11.8905 0
    CHANNELS 3 Zrotation Xrotation Yrotation
    JOINT Spine1
    {
      OFFSET 0 25.6574 0.127663
      CHANNELS 3 Zrotation Xrotation Yrotation
      JOINT HEad
      {
        OFFSET 0 8.73416 0.011341
        CHANNELS 3 Zrotation Xrotation Yrotation
        End Site
        {
          OFFSET -0.29 12.7742 2.51395
        }
      }
      JOINT LeftShoulder1
      {
        OFFSET 8.99 -0.362252 -0.22
        CHANNELS 3 Zrotation Xrotation Yrotation
        JOINT LeftArm
        {
          OFFSET 10.2827 -0.00338 0.322123
          CHANNELS 3 Zrotation Xrotation Yrotation
          JOINT LeftForeArm
          {
            OFFSET 32.7669 0.099144 -1.42434
            CHANNELS 3 Zrotation Xrotation Yrotation
            JOINT LeftHand
            {
              OFFSET 27.5643 0.085362 1.02216
              CHANNELS 3 Zrotation Xrotation Yrotation
              End Site
              {
                OFFSET 16.7443 -0.6 1.50291
              }
            }
          }
        }
      }
      JOINT RightShoulder
      {
        OFFSET -8.99 -0.362252 -0.22
        CHANNELS 3 Zrotation Xrotation Yrotation
        JOINT RightArm
        {
          OFFSET -10.2827 -0.00338 0.322123
          CHANNELS 3 Zrotation Xrotation Yrotation
          JOINT RightForeArm
          {
            OFFSET -32.8971 0.099144 -1.42434
            CHANNELS 3 Zrotation Xrotation Yrotation
            JOINT RightHand
            {
              OFFSET -27.4921 0.085362 1.02216
              CHANNELS 3 Zrotation Xrotation Yrotation
              End Site
              {
                OFFSET -16.6312 -0.6 1.50291
              }
            }
          }
        }
      }
    }
  }
  JOINT LeftUpLeg
  {
    OFFSET 8.9458 -8.66707 0.101652
    CHANNELS 3 Zrotation Xrotation Yrotation
    JOINT LeftLeg
    {
      OFFSET 0 -44.4227 1.3727
      CHANNELS 3 Zrotation Xrotation Yrotation
      JOINT LeftFoot
      {
        OFFSET -0.253549 -42.0924 -1.46059
        CHANNELS 3 Zrotation Xrotation Yrotation
        JOINT LeftToes
        {
          OFFSET -0.04 -4.41509 8.4991
          CHANNELS 3 Zrotation Xrotation Yrotation
          End Site
          {
            OFFSET 0.08 -0.047448 9.77979
          }
        }
      }
    }
  }
}
MOTION
Frames:	20
Frame Time:	0.0166667
43.8916 81.976 -119.981 -2.38525 2.77209 -21.2467 -17.225 -6.94421 2.51342 17.3933 54.2285 -17.086 27.9053 0.499361 0.337864 0.0462048 0.000533403 0.662642 -5.41036 9.23614 7.76343 -0.00917983 5.32039e-009 2.22564e-007 -5.75401 10.406 19.0234 3.97569e-016 0 -1.59028e-015 -113.006 -20.9269 -93.024 -22.0501 58.8116 -81.7897 36.0517 11.6131 -22.1007 32.942 12.2852 11.1587 80.1288 -15.5526 77.9484 31.972 62.2039 85.1806 -34.583 19.1126 -1.54737 23.8837 -50.1752 17.3182 -4.95171 73.2274 12.0612 -0.642631 -0.487552 -0.0312858 -1.34738e-009 1.55988e-007 -4.83543e-009 
45.7107 81.1923 -123.369 -2.41454 2.42253 -21.2768 -18.3689 -11.6441 1.95177 19.877 59.1477 -18.9694 29.0876 1.99972 -0.0574604 0.0462048 0.000533403 0.662642 -5.62248 9.91988 8.08667 -0.00917983 5.32039e-009 2.22564e-007 -5.54124 10.1456 18.6444 -3.97569e-016 0 1.59028e-015 -113.327 -20.4075 -92.8308 -21.5225 59.2188 -82.6835 36.303 11.6409 -21.9781 33.267 11.8746 10.7773 79.6339 -15.6264 77.3413 31.225 62.5097 86.1928 -34.8228 19.0832 -1.48104 23.9141 -52.8803 17.6594 -4.5565 72.7535 12.1434 -0.444861 3.33399 0.419191 -1.34738e-009 1.55988e-007 -4.83543e-009 
47.4948 80.22 -126.787 -2.41873 2.0305 -21.2661 -19.5787 -16.2969 1.27614 22.7308 63.771 -21.422 30.4624 4.00766 -0.678123 0.0462048 0.000533403 0.662642 -5.86555 10.6053 8.38581 -0.00917983 5.32039e-009 2.22564e-007 -5.3618 9.96329 18.252 -3.97569e-016 3.18055e-015 -0 -113.63 -19.833 -92.6387 -21.0184 59.5545 -83.5253 36.6071 11.576 -22.0204 33.5444 11.4601 10.3874 79.137 -15.6752 76.7443 30.3884 62.7219 87.2701 -34.9818 19.1534 -1.59862 23.8557 -55.5832 17.9345 -3.79939 72.159 11.9734 -0.303898 7.38344 0.811167 -1.34738e-009 1.55988e-007 -4.83543e-009 
49.2348 79.0522 -130.228 -2.39746 1.61029 -21.2164 -20.878 -20.9255 0.477964 26.1446 68.0844 -24.6524 32.0372 6.49976 -1.54227 0.0462048 0.000533403 0.662642 -6.13234 11.2776 8.65414 -0.00917983 5.32039e-009 2.22564e-007 -5.21601 9.85327 17.8529 3.97569e-016 0 1.59028e-015 -113.898 -19.2105 -92.4579 -20.5308 59.8466 -84.2968 36.674 11.6656 -21.9082 33.7939 11.0573 10.0007 78.6106 -15.6958 76.1783 29.4528 62.8505 88.4141 -35.0257 19.2073 -1.64688 23.6953 -58.262 18.1196 -2.79028 71.3928 11.6546 -0.193792 11.6611 1.1476 -1.34738e-009 1.55988e-007 -4.83543e-009 
50.9546 77.8305 -133.68 -2.34985 1.1767 -21.1327 -22.2901 -25.5301 -0.45295 30.358 72.008 -28.9243 33.8037 9.45079 -2.67353 0.0462048 0.000533403 0.662642 -6.41764 11.9247 8.891 -0.00917983 5.32039e-009 2.22564e-007 -5.10264 9.80654 17.4531 -1.19271e-015 -3.18055e-015 1.59028e-015 -114.125 -18.5694 -92.306 -20.0898 60.0812 -84.9644 36.8113 11.698 -21.869 33.9917 10.6776 9.64515 78.0957 -15.6945 75.6756 28.4917 62.8878 89.5453 -35.0386 19.2337 -1.81702 23.3759 -60.8508 18.1556 -1.65578 70.3515 11.3185 -0.0734363 16.1551 1.42273 -1.34738e-009 1.55988e-007 -4.83543e-009 
52.6565 76.5953 -137.133 -2.27802 0.745305 -21.0209 -23.8335 -30.0845 -1.53183 35.599 75.4298 -34.4943 35.7452 12.8317 -4.09704 0.0462048 0.000533403 0.662642 -6.71401 12.5356 9.09783 -0.00917983 5.32039e-009 2.22564e-007 -5.02126 9.81334 17.0577 1.59028e-015 -1.59028e-015 -1.59028e-015 -114.312 -17.9321 -92.1923 -19.7192 60.2687 -85.5021 36.791 11.8087 -21.7375 34.1391 10.3233 9.3257 77.5999 -15.6629 75.245 27.5613 62.8401 90.6014 -34.9519 19.2536 -1.98123 22.8313 -63.2654 17.9706 -0.536545 68.918 11.1079 0.110717 20.8436 1.61933 -1.34738e-009 1.55988e-007 -4.83543e-009 
54.3199 75.3853 -140.566 -2.17909 0.331405 -20.8832 -25.5215 -34.5282 -2.77587 41.9428 78.2363 -41.4703 37.8341 16.5989 -5.83689 0.0462048 0.000533403 0.662642 -7.01851 13.0971 9.27714 -0.00917983 5.32039e-009 2.22564e-007 -4.97358 9.86388 16.6673 3.97569e-016 3.18055e-015 3.18055e-015 -114.458 -17.3194 -92.1041 -19.4114 60.4338 -85.9324 36.7737 11.9098 -21.591 34.2494 9.99964 9.07435 77.084 -15.621 74.8647 26.6878 62.697 91.5414 -34.772 19.2431 -2.28471 21.998 -65.4046 17.498 0.443032 66.9752 11.1376 0.420679 25.6952 1.70662 -1.34738e-009 1.55988e-007 -4.83543e-009 
53.207 74.2418 -139.287 -2.0553 -0.0517851 -20.724 -25.6342 -34.0358 -2.64615 49.6197 80.4217 -49.2371 39.7448 15.915 -5.62277 0.0462048 0.000533403 0.662642 -7.32258 13.6004 9.43141 -0.00917983 5.32039e-009 2.22564e-007 -4.95843 9.94854 16.2851 3.97569e-016 3.18055e-015 -1.59028e-015 -114.568 -16.7424 -92.0459 -19.1645 60.5649 -86.2595 36.7255 12.0399 -21.4336 34.3207 9.69935 8.87594 76.5696 -15.5542 74.5417 25.9205 62.4737 92.316 -34.6653 19.2293 -2.42357 23.523 -66.6054 18.7245 1.68621 71.2154 9.73476 -1.55383 23.9801 2.01315 -1.34738e-009 1.55988e-007 -4.83543e-009 
52.087 73.196 -137.983 -1.90794 -0.391705 -20.5468 -25.6576 -33.3162 -2.44552 59.3037 82.1164 -59.0504 41.6994 15.1308 -5.35809 0.0462048 0.000533403 0.662642 -7.61832 14.0374 9.56273 -0.00917983 5.32039e-009 2.22564e-007 -4.97444 10.0572 15.9132 -1.19271e-015 0 -1.59028e-015 -114.647 -16.209 -92.0228 -18.9737 60.6595 -86.4876 36.661 12.1668 -21.2906 34.349 9.42184 8.72939 76.0788 -15.4664 74.2835 25.2817 62.1899 92.9014 -34.5222 19.2045 -2.613 25.0527 -67.5716 20.0147 3.58731 75.0651 7.57241 -3.43176 22.2748 2.22358 -1.34738e-009 1.55988e-007 -4.83543e-009 
50.9393 72.3178 -136.625 -1.73419 -0.672895 -20.3448 -25.5764 -32.3115 -2.18024 69.969 83.2534 -69.8777 43.6677 14.2232 -5.02986 0.0462048 0.000533403 0.662642 -7.90071 14.3987 9.67021 -0.00917983 5.32039e-009 2.22564e-007 -5.0206 10.176 15.5523 -7.95139e-016 3.18055e-015 -0 -114.699 -15.7294 -92.0444 -18.8262 60.7074 -86.6096 36.5382 12.3534 -21.1801 34.2844 9.17475 8.68041 75.666 -15.3908 74.1039 24.7567 61.8565 93.3108 -34.3731 19.1717 -2.70613 26.5111 -68.2513 21.288 6.50989 78.4603 4.29354 -5.19998 20.5391 2.3388 -1.34738e-009 1.55988e-007 -4.83543e-009 
49.8366 71.4666 -135.164 -1.54022 -0.888755 -20.1186 -25.4531 -31.0079 -1.80822 80.5913 83.936 -80.6128 45.7121 13.1091 -4.55587 0.0462048 0.000533403 0.662642 -8.16235 14.6849 9.75383 -0.00917983 5.32039e-009 2.22564e-007 -5.09455 10.2955 15.2072 1.76556e-031 -6.36111e-015 1.59028e-015 -114.725 -15.3012 -92.1161 -18.7528 60.7031 -86.6082 36.4587 12.3942 -21.1185 34.1452 8.94526 8.66625 75.3328 -15.2769 74.003 24.3079 61.5037 93.5981 -34.2349 19.2043 -2.84027 28.7143 -69.0981 23.2417 -4.81318 83.7899 15.6883 -6.89866 18.9584 2.51252 -1.34738e-009 1.55988e-007 -4.83543e-009 
48.6897 70.9238 -133.767 -1.3295 -1.0359 -19.8698 -25.1552 -29.4133 -1.47166 86.0787 84.2595 -86.3171 47.6576 12.0356 -4.13169 0.0462048 0.000533403 0.662642 -8.40081 14.8976 9.81458 -0.00917983 5.32039e-009 2.22564e-007 -5.19348 10.4072 14.8796 -7.95139e-016 3.18055e-015 -0 -114.728 -14.9243 -92.2358 -18.7787 60.646 -86.4724 36.3328 12.4592 -21.0736 33.9382 8.73496 8.67857 75.0842 -15.1291 73.9721 23.8845 61.1478 93.8269 -34.0807 19.2503 -2.97398 29.6512 -68.8055 24.0422 -6.42207 85.1497 16.731 -8.42907 16.9812 2.40128 -1.34738e-009 1.55988e-007 -4.83543e-009 
47.511 70.599 -132.288 -1.10584 -1.11091 -19.5947 -24.7571 -27.5192 -1.10365 86.4576 84.4109 -86.9249 49.5916 10.8621 -3.63891 0.0462048 0.000533403 0.662642 -8.61594 15.039 9.8574 -0.00917983 5.32039e-009 2.22564e-007 -5.31499 10.5015 14.5669 0 3.18055e-015 -0 -114.711 -14.6122 -92.4181 -18.9627 60.515 -86.1413 36.1847 12.4764 -21.0835 33.6206 8.56572 8.77346 74.9639 -14.9947 74.0194 23.4376 60.7968 94.0447 -33.8222 19.3132 -3.20091 30.3948 -68.342 24.6843 -9.17796 86.5483 18.8996 -9.84453 14.9878 2.21753 -1.34738e-009 1.55988e-007 -4.83543e-009 
46.3325 70.4128 -130.76 -0.880533 -1.1186 -19.2955 -24.2684 -25.3586 -0.720995 81.4347 84.4062 -82.1414 51.5128 9.62577 -3.09672 0.0462048 0.000533403 0.662642 -8.80088 15.118 9.8847 -0.00917983 5.32039e-009 2.22564e-007 -5.45663 10.576 14.2708 1.19271e-015 -3.18055e-015 4.77083e-015 -114.685 -14.3598 -92.6432 -19.2698 60.3464 -85.6692 36.0268 12.4678 -21.1827 33.3103 8.40791 8.86978 74.8587 -14.8301 74.1062 23.0172 60.4758 94.219 -33.6732 19.3349 -3.35806 30.9194 -67.6909 25.1285 -15.3159 87.9364 24.4614 -11.138 12.9868 1.96541 -1.34738e-009 1.55988e-007 -4.83543e-009 
45.1525 70.3683 -129.185 -0.657259 -1.06542 -18.9768 -23.7067 -22.9805 -0.336769 71.9458 84.1384 -72.9019 53.4283 8.37402 -2.53078 0.0462048 0.000533403 0.662642 -8.9563 15.1423 9.9006 -0.00917983 5.32039e-009 2.22564e-007 -5.61505 10.6287 13.9917 -1.59028e-015 0 -1.59028e-015 -114.654 -14.1649 -92.8889 -19.6562 60.1619 -85.1114 35.8756 12.4444 -21.3104 33.033 8.26331 8.95506 74.7452 -14.6527 74.2191 22.6652 60.1962 94.3209 -33.5024 19.3385 -3.52473 31.231 -66.8453 25.3741 -41.1014 89.1954 49.7137 -12.3023 10.9884 1.64998 -1.34738e-009 1.55988e-007 -4.83543e-009 
43.9423 70.5218 -127.551 -0.418344 -0.918965 -18.6358 -23.0831 -20.4559 0.0247568 60.0823 83.424 -61.3096 55.3365 7.13921 -1.96502 0.0462048 0.000533403 0.662642 -9.08995 15.082 9.90463 -0.00917983 5.32039e-009 2.22564e-007 -5.78783 10.6534 13.729 0 3.18055e-015 -0 -114.621 -14.0422 -93.1557 -20.0998 59.9552 -84.4761 35.7077 12.4936 -21.4785 32.7468 8.16949 9.06325 74.647 -14.5053 74.3825 22.4415 59.9627 94.2915 -33.3696 19.2346 -3.67682 31.4042 -65.821 25.5134 -144.733 89.1231 152.92 -13.288 8.99935 1.27571 -1.34738e-009 1.55988e-007 -4.83543e-009 
42.6635 70.8726 -125.942 -0.168985 -0.696734 -18.275 -22.3387 -17.8289 0.302063 48.2414 82.1032 -49.8268 57.1674 6.00009 -1.49029 0.0462048 0.000533403 0.662642 -9.2046 14.9574 9.89897 -0.00917983 5.3204e-009 2.22564e-007 -5.97364 10.6502 13.485 1.59028e-015 6.36111e-015 1.59028e-015 -114.588 -13.978 -93.4158 -20.5526 59.7527 -83.8385 35.5754 12.4139 -21.6906 32.4708 8.09112 9.14246 74.5343 -14.3509 74.5471 22.2969 59.7845 94.1956 -33.3214 19.2865 -3.8278 30.6815 -64.6545 25.0183 99.2188 86.888 -91.5394 -14.0023 6.90392 0.803702 -1.34738e-009 1.55988e-007 -4.83543e-009 
41.5302 71.1675 -124.227 0.100623 -0.412244 -17.8921 -21.7131 -15.1547 0.63007 39.3567 80.3502 -41.1862 59.1522 4.86783 -0.958295 0.0462048 0.000533403 0.662642 -9.31208 14.7824 9.88008 -0.00917983 5.32039e-009 2.22564e-007 -6.1724 10.6188 13.2583 7.95139e-016 -6.36111e-015 4.77083e-015 -114.558 -13.9591 -93.6471 -20.9809 59.5689 -83.248 35.4483 12.3795 -21.8981 32.2066 8.0327 9.19037 74.3969 -14.2008 74.6949 22.1702 59.655 94.0992 -33.321 19.2981 -3.98833 31.6161 -63.28 25.8135 -170.627 86.8703 179.941 -13.1356 5.0241 0.342557 -1.34738e-009 1.55988e-007 -4.83543e-009 
40.2904 71.9202 -122.684 0.410323 -0.0698043 -17.4641 -20.9289 -12.513 0.764755 31.6566 77.8717 -33.956 60.9803 4.04954 -0.758349 0.0462048 0.000533403 0.662642 -9.42337 14.5735 9.83196 -0.00917983 5.3204e-009 2.22564e-007 -6.38762 10.5502 13.0383 -3.97569e-016 0 -1.59028e-015 -114.527 -13.976 -93.849 -21.3833 59.401 -82.6943 35.3421 12.3061 -22.1072 31.9166 8.05227 9.25549 74.2604 -14.1023 74.8607 21.993 59.5624 94.042 -33.3014 19.3792 -4.23483 31.7377 -61.4133 26.1702 -48.6952 89.7484 60.6435 -11.1242 2.57491 -0.188543 -1.34738e-009 1.55988e-007 -4.83543e-009 
39.1497 72.6017 -121.056 0.762351 0.324466 -16.9823 -20.2527 -9.84183 0.881031 26.3025 75.0648 -28.9704 62.915 3.23411 -0.535901 0.0462048 0.000533403 0.662642 -9.53561 14.3425 9.74266 -0.00917983 5.32038e-009 2.22564e-007 -6.62018 10.446 12.8214 1.98785e-015 3.18055e-015 2.38542e-015 -114.494 -13.9983 -94.0094 -21.7444 59.2631 -82.1977 35.2838 12.159 -22.3764 31.6485 8.06581 9.31469 74.0867 -14.0297 74.968 21.7732 59.5055 94.0317 -33.3764 19.4066 -4.32424 33.0821 -59.4961 27.4464 -71.406 86.9088 86.8879 -8.43929 0.5277 -0.625061 -1.34738e-009 1.55988e-007 -4.83543e-009 
